<svg width="17" height="18" viewBox="0 0 17 18" fill="none" xmlns="http://www.w3.org/2000/svg">
<path d="M4.9797 0.392816C4.07529 0.435486 3.4575 0.580326 2.91775 0.791806C2.35895 1.00958 1.88532 1.30164 1.41408 1.77474C0.942324 2.24819 0.652641 2.72266 0.436399 3.28196C0.227126 3.82307 0.0851749 4.44119 0.0453944 5.3461C0.00561401 6.25288 -0.00339608 6.54205 0.00102396 8.8503C0.00544401 11.1582 0.0156441 11.4479 0.0588246 12.3548C0.102005 13.2591 0.246337 13.8765 0.457819 14.4166C0.675931 14.9754 0.967654 15.4488 1.44094 15.9203C1.91405 16.3917 2.38887 16.6812 2.94852 16.8976C3.48912 17.1067 4.10742 17.249 5.01217 17.2886C5.91879 17.3285 6.2083 17.3374 8.51591 17.333C10.8245 17.3285 11.114 17.3183 12.0207 17.2753C12.9251 17.2321 13.5422 17.0873 14.0826 16.8763C14.6414 16.6577 15.115 16.3665 15.5863 15.8932C16.0575 15.4201 16.3472 14.9453 16.5635 14.3857C16.7727 13.8451 16.9152 13.2268 16.9545 12.3225C16.9941 11.4154 17.0034 11.1256 16.999 8.81783C16.9946 6.50975 16.9842 6.22058 16.9412 5.31414C16.8982 4.40923 16.7533 3.79196 16.5422 3.2517C16.3237 2.69291 16.0324 2.2198 15.5592 1.74805C15.0861 1.27682 14.6113 0.986625 14.0517 0.770896C13.5107 0.561626 12.8928 0.418996 11.988 0.379896C11.0816 0.339436 10.7922 0.330596 8.48378 0.335016C6.17583 0.339436 5.88649 0.349296 4.97987 0.392816M5.07898 15.7588C4.25022 15.7227 3.80022 15.585 3.50034 15.4696C3.10322 15.3159 2.81982 15.1316 2.52147 14.8357C2.2238 14.5385 2.03901 14.256 1.88396 13.8597C1.76751 13.5598 1.62726 13.1103 1.5885 12.2816C1.54634 11.3857 1.53665 11.1169 1.53257 8.84724C1.52815 6.57826 1.53648 6.30932 1.57558 5.41274C1.61111 4.58467 1.74966 4.134 1.86475 3.83446C2.01844 3.43683 2.20204 3.15395 2.49869 2.8556C2.79585 2.55742 3.0784 2.37314 3.47501 2.2181C3.77472 2.10097 4.22404 1.96191 5.05246 1.92264C5.94888 1.88014 6.21748 1.87113 8.4865 1.86671C10.756 1.86229 11.025 1.87028 11.9216 1.90972C12.7496 1.94576 13.2003 2.08295 13.4997 2.19889C13.8971 2.35257 14.1805 2.53566 14.4785 2.83282C14.7766 3.12998 14.9614 3.41201 15.1164 3.80947C15.2334 4.10833 15.3726 4.55832 15.4117 5.38639C15.4544 6.2828 15.464 6.55157 15.4681 8.82072C15.4725 11.0904 15.4642 11.3592 15.4249 12.2552C15.3889 13.084 15.2514 13.5341 15.1358 13.8344C14.9821 14.2311 14.7983 14.5145 14.5015 14.8129C14.2047 15.11 13.9221 15.2953 13.5252 15.4504C13.2261 15.5672 12.7762 15.7066 11.9482 15.7458C11.0518 15.788 10.7832 15.7977 8.51336 15.8018C6.24434 15.8062 5.97574 15.7977 5.07915 15.7588M12.0083 4.2904C12.0093 4.85327 12.4671 5.30904 13.03 5.30802C13.5932 5.307 14.049 4.84953 14.0481 4.28649C14.0469 3.72362 13.5893 3.26751 13.0261 3.26853C12.4628 3.26955 12.0071 3.72736 12.0081 4.29023M4.13564 8.84231C4.14023 11.2529 6.09814 13.2028 8.50826 13.198C10.9185 13.1933 12.8695 11.2361 12.8649 8.82548C12.8601 6.41574 10.9021 4.46482 8.49142 4.46941C6.08131 4.47417 4.13088 6.43223 4.13564 8.84231ZM5.66667 8.83925C5.66395 7.27475 6.9303 6.00366 8.49448 6.00094C10.059 5.99788 11.3303 7.2637 11.3333 8.82854C11.3364 10.3934 10.0701 11.6641 8.50519 11.6672C6.94084 11.6703 5.66956 10.4043 5.66667 8.83942" fill="#362E26" fill-opacity="0.75"/>
</svg>
