<svg xmlns="http://www.w3.org/2000/svg" viewBox="0 0 1000 820" width="1000" height="820">
  <rect width="1000" height="820" fill="#f6f4f0"/>

  <rect x="0" y="0" width="1000" height="60" fill="#1c1e21" />
  
  <rect x="20" y="20" width="20" height="20" fill="none" stroke="#00d873" stroke-width="3" stroke-dasharray="4,4" />
  <text x="50" y="35" fill="#00d873" font-family="sans-serif" font-size="16" font-weight="bold">grid (全体カラム分割)</text>
  
  <rect x="250" y="20" width="20" height="20" fill="none" stroke="#3c8bf7" stroke-width="3" />
  <text x="280" y="35" fill="#3c8bf7" font-family="sans-serif" font-size="16" font-weight="bold">flex (row: 横並び専用)</text>
  
  <rect x="500" y="20" width="20" height="20" fill="none" stroke="#f2711c" stroke-width="3" />
  <text x="530" y="35" fill="#f2711c" font-family="sans-serif" font-size="16" font-weight="bold">block (通常ブロック配置 + margin)</text>

  <rect x="20" y="90" width="960" height="710" fill="none" stroke="#00d873" stroke-width="3" stroke-dasharray="8,8" />
  <text x="30" y="115" fill="#00d873" font-family="monospace" font-size="14" font-weight="bold">main [display: grid; grid-template-columns: 1fr 1fr; gap: 40px;]</text>

  <g id="left-column">
    <rect x="40" y="140" width="440" height="640" fill="none" stroke="#f2711c" stroke-width="2" />
    <text x="45" y="160" fill="#d95c00" font-family="monospace" font-size="12" font-weight="bold">section [block layout: margin-bottomで縦積み]</text>

    <rect x="60" y="180" width="400" height="80" fill="none" stroke="#f2711c" stroke-width="1" stroke-dasharray="2,2"/>
    <text x="65" y="200" fill="#d95c00" font-family="monospace" font-size="12">header [block layout: p + h2 + margin-bottom]</text>
    <text x="65" y="225" fill="#333" font-family="sans-serif" font-size="14" font-weight="bold">Information</text>
    <text x="65" y="250" fill="#111" font-family="serif" font-size="24" font-weight="bold" letter-spacing="2">お知らせ</text>

    <rect x="60" y="280" width="400" height="110" fill="none" stroke="#3c8bf7" stroke-width="2" />
    <text x="65" y="300" fill="#0056b3" font-family="monospace" font-size="12" font-weight="bold">a.card [display: flex; gap: 24px; border-bottom]</text>
    
    <rect x="65" y="310" width="105" height="75" fill="#e8e2da" stroke="#f2711c" stroke-width="1"/>
    <text x="70" y="330" fill="#d95c00" font-family="monospace" font-size="11">img</text>
    <text x="70" y="350" fill="#d95c00" font-family="monospace" font-size="10">[aspect-ratio:4/3]</text>
    <text x="70" y="370" fill="#d95c00" font-family="monospace" font-size="10">[object-fit:cover]</text>
    
    <rect x="190" y="310" width="260" height="75" fill="none" stroke="#f2711c" stroke-width="1" stroke-dasharray="2,2"/>
    <text x="195" y="330" fill="#d95c00" font-family="monospace" font-size="11">div [block layout]</text>
    <line x1="195" y1="345" x2="280" y2="345" stroke="#333" stroke-width="4" />
    <line x1="195" y1="370" x2="350" y2="370" stroke="#111" stroke-width="6" />

    <rect x="60" y="410" width="400" height="110" fill="none" stroke="#3c8bf7" stroke-width="2" />
    <text x="65" y="430" fill="#0056b3" font-family="monospace" font-size="12" font-weight="bold">a.card [display: flex; gap: 24px; border-bottom]</text>
    <rect x="65" y="440" width="105" height="75" fill="#e8e2da" stroke="#f2711c" stroke-width="1"/>
    <rect x="190" y="440" width="260" height="75" fill="none" stroke="#f2711c" stroke-width="1" stroke-dasharray="2,2"/>
    <text x="195" y="460" fill="#d95c00" font-family="monospace" font-size="11">div [block layout]</text>
    <line x1="195" y1="475" x2="280" y2="475" stroke="#333" stroke-width="4" />
    <line x1="195" y1="500" x2="380" y2="500" stroke="#111" stroke-width="6" />

    <rect x="60" y="540" width="400" height="110" fill="none" stroke="#3c8bf7" stroke-width="2" />
    <text x="65" y="560" fill="#0056b3" font-family="monospace" font-size="12" font-weight="bold">a.card [display: flex; gap: 24px; border-bottom]</text>
    <rect x="65" y="570" width="105" height="75" fill="#fff" stroke="#f2711c" stroke-width="1"/>
    <path d="M 80 615 L 100 585 L 130 595 L 150 625 Z" fill="#b0c4de" opacity="0.7"/>
    <rect x="190" y="570" width="260" height="75" fill="none" stroke="#f2711c" stroke-width="1" stroke-dasharray="2,2"/>
    <text x="195" y="590" fill="#d95c00" font-family="monospace" font-size="11">div [block layout]</text>
    <line x1="195" y1="605" x2="280" y2="605" stroke="#333" stroke-width="4" />
    <line x1="195" y1="630" x2="400" y2="630" stroke="#111" stroke-width="6" />

    <rect x="60" y="690" width="400" height="60" fill="none" stroke="#3c8bf7" stroke-width="2" />
    <text x="65" y="710" fill="#0056b3" font-family="monospace" font-size="11" font-weight="bold">a.btn [display: flex; justify-content: flex-end; align-items: center]</text>
    <circle cx="370" cy="730" r="12" fill="none" stroke="#888" stroke-width="1.5"/>
    <path d="M 366 730 L 374 730 M 371 726 L 375 730 L 371 734" fill="none" stroke="#888" stroke-width="1.5"/>
    <text x="390" y="735" fill="#111" font-family="sans-serif" font-size="14" font-weight="bold">一覧を見る</text>
  </g>

  <g id="right-column">
    <rect x="520" y="140" width="440" height="640" fill="none" stroke="#f2711c" stroke-width="2" />
    <text x="525" y="160" fill="#d95c00" font-family="monospace" font-size="12" font-weight="bold">section [block layout: margin-bottomで縦積み]</text>

    <rect x="540" y="180" width="400" height="80" fill="none" stroke="#f2711c" stroke-width="1" stroke-dasharray="2,2"/>
    <text x="545" y="200" fill="#d95c00" font-family="monospace" font-size="12">header [block layout: p + h2 + margin-bottom]</text>
    <text x="545" y="225" fill="#333" font-family="sans-serif" font-size="14" font-weight="bold">Blog</text>
    <text x="545" y="250" fill="#111" font-family="serif" font-size="24" font-weight="bold" letter-spacing="2">ブログ</text>

    <rect x="540" y="280" width="400" height="110" fill="none" stroke="#3c8bf7" stroke-width="2" />
    <text x="545" y="300" fill="#0056b3" font-family="monospace" font-size="12" font-weight="bold">a.card [display: flex; gap: 24px; border-bottom]</text>
    
    <rect x="545" y="310" width="130" height="75" fill="#d1dbe5" stroke="#f2711c" stroke-width="1"/>
    <text x="550" y="330" fill="#d95c00" font-family="monospace" font-size="11">img</text>
    <text x="550" y="350" fill="#d95c00" font-family="monospace" font-size="10">[aspect-ratio:16/9]</text>
    <text x="550" y="370" fill="#d95c00" font-family="monospace" font-size="10">[object-fit:cover]</text>
    
    <rect x="690" y="310" width="240" height="75" fill="none" stroke="#f2711c" stroke-width="1" stroke-dasharray="2,2"/>
    <text x="695" y="330" fill="#d95c00" font-family="monospace" font-size="11">div [block layout]</text>
    <line x1="695" y1="345" x2="780" y2="345" stroke="#333" stroke-width="4" />
    <line x1="695" y1="370" x2="850" y2="370" stroke="#111" stroke-width="6" />

    <rect x="540" y="410" width="400" height="110" fill="none" stroke="#3c8bf7" stroke-width="2" />
    <text x="545" y="430" fill="#0056b3" font-family="monospace" font-size="12" font-weight="bold">a.card [display: flex; gap: 24px; border-bottom]</text>
    <rect x="545" y="440" width="130" height="75" fill="#d1dbe5" stroke="#f2711c" stroke-width="1"/>
    <rect x="690" y="440" width="240" height="75" fill="none" stroke="#f2711c" stroke-width="1" stroke-dasharray="2,2"/>
    <text x="695" y="460" fill="#d95c00" font-family="monospace" font-size="11">div [block layout]</text>
    <line x1="695" y1="475" x2="780" y2="475" stroke="#333" stroke-width="4" />
    <line x1="695" y1="500" x2="880" y2="500" stroke="#111" stroke-width="6" />

    <rect x="540" y="540" width="400" height="110" fill="none" stroke="#3c8bf7" stroke-width="2" />
    <text x="545" y="560" fill="#0056b3" font-family="monospace" font-size="12" font-weight="bold">a.card [display: flex; gap: 24px; border-bottom]</text>
    <rect x="545" y="570" width="130" height="75" fill="#eaddd1" stroke="#f2711c" stroke-width="1"/>
    <rect x="690" y="570" width="240" height="75" fill="none" stroke="#f2711c" stroke-width="1" stroke-dasharray="2,2"/>
    <text x="695" y="590" fill="#d95c00" font-family="monospace" font-size="11">div [block layout]</text>
    <line x1="695" y1="605" x2="780" y2="605" stroke="#333" stroke-width="4" />
    <line x1="695" y1="630" x2="820" y2="630" stroke="#111" stroke-width="6" />

    <rect x="540" y="690" width="400" height="60" fill="none" stroke="#3c8bf7" stroke-width="2" />
    <text x="545" y="710" fill="#0056b3" font-family="monospace" font-size="11" font-weight="bold">a.btn [display: flex; justify-content: flex-end; align-items: center]</text>
    <circle cx="870" cy="730" r="12" fill="none" stroke="#888" stroke-width="1.5"/>
    <path d="M 866 730 L 874 730 M 871 726 L 875 730 L 871 734" fill="none" stroke="#888" stroke-width="1.5"/>
    <text x="890" y="735" fill="#111" font-family="sans-serif" font-size="14" font-weight="bold">一覧を見る</text>
  </g>

</svg>